<mxfile host="app.diagrams.net" modified="2023-08-29T12:56:51.408Z" agent="Mozilla/5.0 (Windows NT 10.0; Win64; x64) AppleWebKit/537.36 (KHTML, like Gecko) Chrome/116.0.0.0 Safari/537.36" etag="kcUQ8pRHQzJ6z_fzoyUe" version="21.6.6" type="device">
  <diagram name="Page-1" id="b5b7bab2-c9e2-2cf4-8b2a-24fd1a2a6d21">
    <mxGraphModel dx="1562" dy="950" grid="1" gridSize="10" guides="1" tooltips="1" connect="1" arrows="1" fold="1" page="1" pageScale="1" pageWidth="827" pageHeight="1169" background="none" math="0" shadow="0">
      <root>
        <mxCell id="0" />
        <mxCell id="1" parent="0" />
        <mxCell id="zQgBBsJH8R84XhxE65vh-1" value="Kanban Console - Use Cases" style="shape=umlFrame;whiteSpace=wrap;html=1;pointerEvents=0;width=180;height=30;" parent="1" vertex="1">
          <mxGeometry x="170" y="120" width="520" height="840" as="geometry" />
        </mxCell>
        <mxCell id="zQgBBsJH8R84XhxE65vh-2" value="User" style="shape=umlActor;verticalLabelPosition=bottom;verticalAlign=top;html=1;fillStyle=solid;fillColor=#000000;fontColor=#ffffff;strokeColor=#0F0F0F;gradientDirection=west;gradientColor=#FF1FCB;strokeWidth=2;" parent="1" vertex="1">
          <mxGeometry x="50" y="470" width="50" height="90" as="geometry" />
        </mxCell>
        <mxCell id="zQgBBsJH8R84XhxE65vh-5" value="View Active Tickets" style="ellipse;whiteSpace=wrap;html=1;" parent="1" vertex="1">
          <mxGeometry x="190" y="190" width="130" height="60" as="geometry" />
        </mxCell>
        <mxCell id="zQgBBsJH8R84XhxE65vh-30" style="rounded=0;orthogonalLoop=1;jettySize=auto;html=1;dashed=1;" parent="1" source="zQgBBsJH8R84XhxE65vh-6" target="zQgBBsJH8R84XhxE65vh-7" edge="1">
          <mxGeometry relative="1" as="geometry" />
        </mxCell>
        <mxCell id="zQgBBsJH8R84XhxE65vh-31" value="&amp;lt;&amp;lt; extend &amp;gt;&amp;gt;" style="edgeLabel;html=1;align=center;verticalAlign=middle;resizable=0;points=[];" parent="zQgBBsJH8R84XhxE65vh-30" vertex="1" connectable="0">
          <mxGeometry x="-0.2094" y="-1" relative="1" as="geometry">
            <mxPoint x="12" y="7" as="offset" />
          </mxGeometry>
        </mxCell>
        <mxCell id="zQgBBsJH8R84XhxE65vh-6" value="View Detailed &lt;br&gt;Ticket" style="ellipse;whiteSpace=wrap;html=1;" parent="1" vertex="1">
          <mxGeometry x="310" y="240" width="130" height="60" as="geometry" />
        </mxCell>
        <mxCell id="zQgBBsJH8R84XhxE65vh-32" style="rounded=0;orthogonalLoop=1;jettySize=auto;html=1;exitX=0.5;exitY=1;exitDx=0;exitDy=0;entryX=0.599;entryY=-0.006;entryDx=0;entryDy=0;entryPerimeter=0;dashed=1;" parent="1" source="zQgBBsJH8R84XhxE65vh-7" target="zQgBBsJH8R84XhxE65vh-16" edge="1">
          <mxGeometry relative="1" as="geometry" />
        </mxCell>
        <mxCell id="zQgBBsJH8R84XhxE65vh-33" value="&amp;lt;&amp;lt; extend &amp;gt;&amp;gt;" style="edgeLabel;html=1;align=center;verticalAlign=middle;resizable=0;points=[];" parent="zQgBBsJH8R84XhxE65vh-32" vertex="1" connectable="0">
          <mxGeometry x="-0.3086" relative="1" as="geometry">
            <mxPoint as="offset" />
          </mxGeometry>
        </mxCell>
        <mxCell id="zQgBBsJH8R84XhxE65vh-7" value="Log Time to Ticket" style="ellipse;whiteSpace=wrap;html=1;" parent="1" vertex="1">
          <mxGeometry x="540" y="290" width="130" height="60" as="geometry" />
        </mxCell>
        <mxCell id="zQgBBsJH8R84XhxE65vh-8" value="Add Ticket" style="ellipse;whiteSpace=wrap;html=1;" parent="1" vertex="1">
          <mxGeometry x="250" y="320" width="130" height="60" as="geometry" />
        </mxCell>
        <mxCell id="zQgBBsJH8R84XhxE65vh-37" style="rounded=0;orthogonalLoop=1;jettySize=auto;html=1;exitX=1;exitY=0.5;exitDx=0;exitDy=0;entryX=0;entryY=0.5;entryDx=0;entryDy=0;dashed=1;" parent="1" source="zQgBBsJH8R84XhxE65vh-9" target="zQgBBsJH8R84XhxE65vh-36" edge="1">
          <mxGeometry relative="1" as="geometry" />
        </mxCell>
        <mxCell id="zQgBBsJH8R84XhxE65vh-38" value="&amp;lt;&amp;lt; include &amp;gt;&amp;gt;" style="edgeLabel;html=1;align=center;verticalAlign=middle;resizable=0;points=[];" parent="zQgBBsJH8R84XhxE65vh-37" vertex="1" connectable="0">
          <mxGeometry x="-0.41" y="1" relative="1" as="geometry">
            <mxPoint x="21" y="1" as="offset" />
          </mxGeometry>
        </mxCell>
        <mxCell id="zQgBBsJH8R84XhxE65vh-9" value="Search for Ticket" style="ellipse;whiteSpace=wrap;html=1;" parent="1" vertex="1">
          <mxGeometry x="283" y="510" width="130" height="60" as="geometry" />
        </mxCell>
        <mxCell id="zQgBBsJH8R84XhxE65vh-10" value="Delete Ticket" style="ellipse;whiteSpace=wrap;html=1;" parent="1" vertex="1">
          <mxGeometry x="430" y="620" width="130" height="60" as="geometry" />
        </mxCell>
        <mxCell id="zQgBBsJH8R84XhxE65vh-11" value="Update Ticket" style="ellipse;whiteSpace=wrap;html=1;" parent="1" vertex="1">
          <mxGeometry x="300" y="410" width="130" height="60" as="geometry" />
        </mxCell>
        <mxCell id="zQgBBsJH8R84XhxE65vh-13" value="View Completed&amp;nbsp;&lt;br&gt;&amp;nbsp;Tickets" style="ellipse;whiteSpace=wrap;html=1;" parent="1" vertex="1">
          <mxGeometry x="349" y="690" width="130" height="60" as="geometry" />
        </mxCell>
        <mxCell id="zQgBBsJH8R84XhxE65vh-14" value="View Deleted&amp;nbsp;&lt;br&gt;&amp;nbsp;Tickets" style="ellipse;whiteSpace=wrap;html=1;" parent="1" vertex="1">
          <mxGeometry x="349" y="800" width="130" height="60" as="geometry" />
        </mxCell>
        <mxCell id="zQgBBsJH8R84XhxE65vh-15" value="View All Tickets in Database" style="ellipse;whiteSpace=wrap;html=1;" parent="1" vertex="1">
          <mxGeometry x="200" y="780" width="130" height="60" as="geometry" />
        </mxCell>
        <mxCell id="zQgBBsJH8R84XhxE65vh-16" value="Mark Ticket Complete" style="ellipse;whiteSpace=wrap;html=1;" parent="1" vertex="1">
          <mxGeometry x="520" y="420" width="130" height="60" as="geometry" />
        </mxCell>
        <mxCell id="zQgBBsJH8R84XhxE65vh-22" style="edgeStyle=orthogonalEdgeStyle;rounded=0;orthogonalLoop=1;jettySize=auto;html=1;" parent="1" source="zQgBBsJH8R84XhxE65vh-19" edge="1">
          <mxGeometry relative="1" as="geometry">
            <mxPoint x="745" y="150" as="targetPoint" />
          </mxGeometry>
        </mxCell>
        <mxCell id="zQgBBsJH8R84XhxE65vh-23" style="edgeStyle=orthogonalEdgeStyle;rounded=0;orthogonalLoop=1;jettySize=auto;html=1;" parent="1" source="zQgBBsJH8R84XhxE65vh-19" edge="1">
          <mxGeometry relative="1" as="geometry">
            <mxPoint x="745" y="920.0000000000002" as="targetPoint" />
          </mxGeometry>
        </mxCell>
        <mxCell id="zQgBBsJH8R84XhxE65vh-19" value="Frequency of &lt;br&gt;Use Case" style="text;html=1;align=center;verticalAlign=middle;resizable=0;points=[];autosize=1;strokeColor=none;fillColor=none;" parent="1" vertex="1">
          <mxGeometry x="700" y="495" width="90" height="40" as="geometry" />
        </mxCell>
        <mxCell id="zQgBBsJH8R84XhxE65vh-24" value="High&lt;br&gt;" style="text;html=1;align=center;verticalAlign=middle;resizable=0;points=[];autosize=1;strokeColor=none;fillColor=none;" parent="1" vertex="1">
          <mxGeometry x="720" y="108" width="50" height="30" as="geometry" />
        </mxCell>
        <mxCell id="zQgBBsJH8R84XhxE65vh-25" value="Low" style="text;html=1;align=center;verticalAlign=middle;resizable=0;points=[];autosize=1;strokeColor=none;fillColor=none;" parent="1" vertex="1">
          <mxGeometry x="720" y="930" width="50" height="30" as="geometry" />
        </mxCell>
        <mxCell id="zQgBBsJH8R84XhxE65vh-26" value="" style="endArrow=classic;html=1;rounded=0;entryX=0;entryY=1;entryDx=0;entryDy=0;exitX=0.75;exitY=0.1;exitDx=0;exitDy=0;exitPerimeter=0;" parent="1" source="zQgBBsJH8R84XhxE65vh-2" target="zQgBBsJH8R84XhxE65vh-5" edge="1">
          <mxGeometry width="50" height="50" relative="1" as="geometry">
            <mxPoint x="110" y="480" as="sourcePoint" />
            <mxPoint x="160" y="430" as="targetPoint" />
          </mxGeometry>
        </mxCell>
        <mxCell id="zQgBBsJH8R84XhxE65vh-27" value="" style="endArrow=classic;html=1;rounded=0;entryX=-0.004;entryY=0.619;entryDx=0;entryDy=0;exitX=0.75;exitY=0.1;exitDx=0;exitDy=0;exitPerimeter=0;entryPerimeter=0;" parent="1" source="zQgBBsJH8R84XhxE65vh-2" target="zQgBBsJH8R84XhxE65vh-8" edge="1">
          <mxGeometry width="50" height="50" relative="1" as="geometry">
            <mxPoint x="98" y="489" as="sourcePoint" />
            <mxPoint x="219" y="251" as="targetPoint" />
          </mxGeometry>
        </mxCell>
        <mxCell id="zQgBBsJH8R84XhxE65vh-28" value="" style="endArrow=classic;html=1;rounded=0;entryX=0;entryY=0.5;entryDx=0;entryDy=0;" parent="1" target="zQgBBsJH8R84XhxE65vh-6" edge="1">
          <mxGeometry width="50" height="50" relative="1" as="geometry">
            <mxPoint x="100" y="470" as="sourcePoint" />
            <mxPoint x="259" y="367" as="targetPoint" />
          </mxGeometry>
        </mxCell>
        <mxCell id="zQgBBsJH8R84XhxE65vh-34" value="" style="endArrow=classic;html=1;rounded=0;entryX=0;entryY=0.5;entryDx=0;entryDy=0;exitX=0.75;exitY=0.1;exitDx=0;exitDy=0;exitPerimeter=0;" parent="1" source="zQgBBsJH8R84XhxE65vh-2" target="zQgBBsJH8R84XhxE65vh-11" edge="1">
          <mxGeometry width="50" height="50" relative="1" as="geometry">
            <mxPoint x="98" y="489" as="sourcePoint" />
            <mxPoint x="259" y="367" as="targetPoint" />
          </mxGeometry>
        </mxCell>
        <mxCell id="zQgBBsJH8R84XhxE65vh-35" value="" style="endArrow=classic;html=1;rounded=0;entryX=0.035;entryY=0.328;entryDx=0;entryDy=0;exitX=0.75;exitY=0.1;exitDx=0;exitDy=0;exitPerimeter=0;entryPerimeter=0;" parent="1" source="zQgBBsJH8R84XhxE65vh-2" target="zQgBBsJH8R84XhxE65vh-9" edge="1">
          <mxGeometry width="50" height="50" relative="1" as="geometry">
            <mxPoint x="98" y="489" as="sourcePoint" />
            <mxPoint x="293" y="440" as="targetPoint" />
          </mxGeometry>
        </mxCell>
        <mxCell id="zQgBBsJH8R84XhxE65vh-36" value="View Matching Tickets" style="ellipse;whiteSpace=wrap;html=1;" parent="1" vertex="1">
          <mxGeometry x="540" y="510" width="130" height="60" as="geometry" />
        </mxCell>
        <mxCell id="zQgBBsJH8R84XhxE65vh-39" value="" style="endArrow=classic;html=1;rounded=0;entryX=0;entryY=0;entryDx=0;entryDy=0;exitX=0.75;exitY=0.1;exitDx=0;exitDy=0;exitPerimeter=0;" parent="1" source="zQgBBsJH8R84XhxE65vh-2" target="zQgBBsJH8R84XhxE65vh-10" edge="1">
          <mxGeometry width="50" height="50" relative="1" as="geometry">
            <mxPoint x="98" y="489" as="sourcePoint" />
            <mxPoint x="298" y="540" as="targetPoint" />
          </mxGeometry>
        </mxCell>
        <mxCell id="zQgBBsJH8R84XhxE65vh-40" value="" style="endArrow=classic;html=1;rounded=0;entryX=0.5;entryY=0;entryDx=0;entryDy=0;exitX=0.75;exitY=0.1;exitDx=0;exitDy=0;exitPerimeter=0;" parent="1" source="zQgBBsJH8R84XhxE65vh-2" target="zQgBBsJH8R84XhxE65vh-14" edge="1">
          <mxGeometry width="50" height="50" relative="1" as="geometry">
            <mxPoint x="98" y="489" as="sourcePoint" />
            <mxPoint x="394" y="629" as="targetPoint" />
          </mxGeometry>
        </mxCell>
        <mxCell id="zQgBBsJH8R84XhxE65vh-41" value="" style="endArrow=classic;html=1;rounded=0;entryX=0.5;entryY=0;entryDx=0;entryDy=0;exitX=0.75;exitY=0.1;exitDx=0;exitDy=0;exitPerimeter=0;" parent="1" source="zQgBBsJH8R84XhxE65vh-2" target="zQgBBsJH8R84XhxE65vh-13" edge="1">
          <mxGeometry width="50" height="50" relative="1" as="geometry">
            <mxPoint x="98" y="489" as="sourcePoint" />
            <mxPoint x="465" y="740" as="targetPoint" />
          </mxGeometry>
        </mxCell>
        <mxCell id="zQgBBsJH8R84XhxE65vh-42" value="" style="endArrow=classic;html=1;rounded=0;" parent="1" target="zQgBBsJH8R84XhxE65vh-15" edge="1">
          <mxGeometry width="50" height="50" relative="1" as="geometry">
            <mxPoint x="90" y="480" as="sourcePoint" />
            <mxPoint x="424" y="810" as="targetPoint" />
          </mxGeometry>
        </mxCell>
        <mxCell id="Kqfg7mbaUUW57NXWAxt8-1" value="User" style="text;html=1;align=center;verticalAlign=middle;resizable=0;points=[];autosize=1;strokeColor=none;fillColor=none;" vertex="1" parent="1">
          <mxGeometry x="40" y="430" width="50" height="30" as="geometry" />
        </mxCell>
      </root>
    </mxGraphModel>
  </diagram>
</mxfile>
